#!OML:ASF H:\Terrain\Patient Classification 1\Animal1\Tuesday\Animal1.ASF
:FULLY-SPECIFIED
:DEGREES
2253
root 7.06788 16.5522 -14.371 -351.246 8.2365 1.83723
lowerback -4.12199 -0.303942 0.0741858
upperback -1.41192 -0.405641 -0.0773088
thorax 0.860877 -0.202321 -0.140193
lowerneck -7.93227 1.12756 -5.92578
upperneck -10.4908 2.6613 10.9676
head -2.00143 1.3767 4.3235
rclavicle -1.2921e-015 1.59028e-014
rhumerus -33.366 -32.8491 -56.4183
rradius 13.6108
rwrist -19.7023
rhand -23.4961 33.5393
rfingers 7.12502
rthumb 2.96396 3.5802
lclavicle -1.2921e-015 1.59028e-014
lhumerus -33.8558 21.4517 64.8317
lradius 24.7519
lwrist -13.7232
lhand 1.13773 48.91
lfingers 7.12502
lthumb 26.6797 77.0496
rfemur -13.9831 21.0471 18.5668
rtibia 19.3484
rfoot -23.6495 -39.6815
rtoes 34.0573
lfemur -6.68732 -21.4326 -17.339
ltibia 2.97379
lfoot -9.33095 26.3372
ltoes 10.58
2254
root 7.07129 16.5503 -14.3609 -351.277 8.2563 2.05485
lowerback -4.19387 -0.31475 -0.0907175
upperback -1.47026 -0.41321 -0.086458
thorax 0.842299 -0.20589 -0.0576941
lowerneck -8.06961 1.12565 -5.86297
upperneck -10.5186 2.66643 11.0296
head -1.98748 1.37957 4.33396
rclavicle -1.59152e-014 -1.33186e-014
rhumerus -33.4258 -32.5807 -56.4236
rradius 13.6807
rwrist -19.8952
rhand -23.4649 33.3311
rfingers 7.12502
rthumb 2.99412 3.3724
lclavicle -1.59152e-014 -1.33186e-014
lhumerus -33.8402 20.9515 65.0999
lradius 24.892
lwrist -13.2555
lhand 1.18095 48.9032
lfingers 7.12502
lthumb 26.721 77.0364
rfemur -13.8821 21.1118 18.3584
rtibia 19.4133
rfoot -24.6765 -39.4526
rtoes 35.757
lfemur -6.35278 -21.5133 -17.6095
ltibia 2.50763
lfoot -9.01152 26.3952
ltoes 10.4674
2255
root 7.07315 16.5474 -14.3507 -351.366 8.31637 2.21769
lowerback -4.20371 -0.316006 -0.218669
upperback -1.50494 -0.409596 -0.0943516
thorax 0.813075 -0.203854 0.0062006
lowerneck -8.35897 1.10308 -5.74575
upperneck -10.4555 2.63673 11.078
head -1.91879 1.36975 4.33239
rclavicle 2.48605e-014 9.93923e-015
rhumerus -33.4142 -31.8759 -56.6936
rradius 13.8925
rwrist -20.5875
rhand -23.7188 32.9553
rfingers 7.12502
rthumb 2.7489 2.99326
lclavicle 2.48605e-014 9.93923e-015
lhumerus -33.7453 20.6724 65.2941
lradius 24.9495
lwrist -13.0466
lhand 1.44411 49.2561
lfingers 7.12502
lthumb 26.9728 77.3507
rfemur -13.7253 21.0739 18.2547
rtibia 19.4825
rfoot -24.9256 -39.5528
rtoes 35.9666
lfemur -5.95626 -21.6248 -17.8278
ltibia 2.03967
lfoot -8.54302 26.4279
ltoes 9.74204
2256
root 7.07532 16.5455 -14.3414 -351.463 8.353 2.15263
lowerback -4.26602 -0.320653 -0.125691
upperback -1.509 -0.419929 -0.0455419
thorax 0.843417 -0.209077 0.00321403
lowerneck -8.4757 1.11232 -5.55934
upperneck -10.5428 2.64191 10.9927
head -1.92432 1.36876 4.27628
rclavicle -1.25359e-014 6.75868e-015
rhumerus -33.2478 -31.5336 -56.8838
rradius 13.8642
rwrist -20.757
rhand -23.97 33.1845
rfingers 7.12502
rthumb 2.50629 3.21952
lclavicle -1.25359e-014 6.75868e-015
lhumerus -33.5605 20.8264 65.3129
lradius 24.8806
lwrist -13.2532
lhand 1.68678 49.4519
lfingers 7.12502
lthumb 27.205 77.5104
rfemur -13.6339 20.9454 18.39
rtibia 19.5958
rfoot -24.4345 -39.6117
rtoes 34.9676
lfemur -5.16037 -21.6633 -17.7763
ltibia 0.751798
lfoot -7.77626 26.4563
ltoes 9.3289
2257
root 7.07691 16.5463 -14.3336 -351.549 8.42753 2.00811
lowerback -4.32443 -0.356277 0.0615751
upperback -1.51388 -0.47582 0.0198905
thorax 0.87011 -0.237156 -0.0378626
lowerneck -8.52415 1.15769 -5.49016
upperneck -10.6722 2.71189 11.0095
head -1.96009 1.39971 4.27125
rclavicle 1.74309e-014 3.57812e-015
rhumerus -33.0414 -31.2907 -57.078
rradius 13.8083
rwrist -20.8756
rhand -23.9295 33.6522
rfingers 7.12502
rthumb 2.54543 3.68761
lclavicle 1.74309e-014 3.57812e-015
lhumerus -33.4591 20.9489 65.2791
lradius 24.8953
lwrist -13.3674
lhand 1.73819 49.3841
lfingers 7.12502
lthumb 27.2542 77.4349
rfemur -13.571 20.8619 18.6073
rtibia 19.6987
rfoot -24.1069 -39.7171
rtoes 34.2884
lfemur -4.68879 -21.7308 -17.6194
ltibia -9.54166e-015
lfoot -7.49103 26.5107
ltoes 9.58514
2258
root 7.07787 16.5471 -14.3258 -351.56 8.47197 2.086
lowerback -4.4016 -0.363973 0.0349229
upperback -1.54485 -0.484891 0.0191531
thorax 0.881632 -0.241618 -0.0245393
lowerneck -8.61345 1.15947 -5.65425
upperneck -10.808 2.76126 11.3018
head -1.99227 1.42609 4.39169
rclavicle 1.75676e-014 -2.22639e-014
rhumerus -32.9641 -30.5399 -57.5005
rradius 14.1462
rwrist -21.7327
rhand -23.9008 33.501
rfingers 7.12502
rthumb 2.57312 3.53675
lclavicle 1.75676e-014 -2.22639e-014
lhumerus -33.4108 20.7618 65.3894
lradius 25.0031
lwrist -13.1923
lhand 1.45981 49.0887
lfingers 7.12502
lthumb 26.9879 77.1809
rfemur -13.527 20.907 18.5511
rtibia 19.726
rfoot -24.5063 -39.7862
rtoes 34.5928
lfemur -4.66049 -21.8126 -17.7057
ltibia -1.03368e-014
lfoot -7.48544 26.5387
ltoes 9.41031
2259
root 7.08033 16.547 -14.3201 -351.437 8.51438 2.24589
lowerback -4.57923 -0.367818 -0.0629697
upperback -1.61447 -0.485335 0.000451966
thorax 0.910014 -0.241642 0.0102048
lowerneck -8.60904 1.14294 -5.87619
upperneck -11.0397 2.80244 11.6772
head -2.06773 1.4445 4.54748
rclavicle 2.12575e-014 7.55382e-015
rhumerus -32.958 -30.0368 -57.747
rradius 14.4289
rwrist -22.2643
rhand -24.0586 33.0871
rfingers 7.12502
rthumb 2.42081 3.12113
lclavicle 2.12575e-014 7.55382e-015
lhumerus -33.3233 20.7362 65.4857
lradius 25.0431
lwrist -13.2533
lhand 1.30528 48.6261
lfingers 7.12502
lthumb 26.84 76.7412
rfemur -13.6237 20.9151 18.3395
rtibia 19.7667
rfoot -25.0698 -39.5954
rtoes 35.2743
lfemur -4.78272 -21.9021 -17.837
ltibia -7.15625e-015
lfoot -7.54842 26.7018
ltoes 8.92686
2260
root 7.08281 16.5457 -14.3147 -351.343 8.61705 2.23037
lowerback -4.71998 -0.383955 0.0339939
upperback -1.73145 -0.510932 0.00739791
thorax 0.867771 -0.254503 -0.0389106
lowerneck -8.52463 1.16063 -5.86054
upperneck -11.1745 2.8419 11.7712
head -2.12447 1.45664 4.5739
rclavicle 8.34896e-015 9.14409e-015
rhumerus -33.0232 -29.9464 -57.6926
rradius 14.3585
rwrist -22.2671
rhand -24.1197 32.9627
rfingers 7.12502
rthumb 2.36173 2.99605
lclavicle 8.34896e-015 9.14409e-015
lhumerus -33.2675 20.8399 65.4414
lradius 25.0397
lwrist -13.482
lhand 1.56372 48.4028
lfingers 7.12502
lthumb 27.0873 76.4796
rfemur -13.6979 20.9524 18.341
rtibia 19.8319
rfoot -25.6498 -39.5049
rtoes 36.0966
lfemur -4.89118 -22.0227 -17.7704
ltibia 9.54166e-015
lfoot -7.83423 26.8625
ltoes 9.41416
2261
root 7.08257 16.5444 -14.3099 -351.365 8.64314 2.27645
lowerback -4.72908 -0.386498 0.0114916
upperback -1.82982 -0.513133 0.00921618
thorax 0.772171 -0.255512 -0.0241644
lowerneck -8.32399 1.18149 -5.76691
upperneck -11.3081 2.86478 11.71
head -2.19696 1.45629 4.53703
rclavicle -8.74653e-015 3.18055e-015
rhumerus -33.1109 -29.9914 -57.5324
rradius 14.2113
rwrist -22.163
rhand -23.75 33.0262
rfingers 7.12502
rthumb 2.71883 3.06383
lclavicle -8.74653e-015 3.18055e-015
lhumerus -33.2277 20.8697 65.4426
lradius 25.0138
lwrist -13.4061
lhand 1.88756 48.7633
lfingers 7.12502
lthumb 27.397 76.7916
rfemur -13.6511 21.0746 18.3256
rtibia 19.8922
rfoot -25.8896 -39.6404
rtoes 36.147
lfemur -4.84051 -22.0819 -17.8318
ltibia -1.82882e-014
lfoot -7.8999 26.7897
ltoes 10.0708
2262
root 7.08135 16.5457 -14.3062 -351.396 8.64881 2.28867
lowerback -4.73684 -0.384143 -0.0320526
upperback -1.89102 -0.508259 0.0388746
thorax 0.714366 -0.252805 0.0311288
lowerneck -8.19589 1.16976 -5.73514
upperneck -11.4562 2.86507 11.8197
head -2.26098 1.44605 4.56515
rclavicle 1.11816e-015 -3.57812e-015
rhumerus -33.1518 -30.1069 -57.3954
rradius 14.1273
rwrist -22.0579
rhand -23.4401 33.1571
rfingers 7.12502
rthumb 3.0181 3.19875
lclavicle 1.11816e-015 -3.57812e-015
lhumerus -33.1269 20.7735 65.5592
lradius 24.9527
lwrist -13.0926
lhand 1.76437 49.4921
lfingers 7.12502
lthumb 27.2792 77.5389
rfemur -13.6474 20.9531 18.3574
rtibia 19.9958
rfoot -25.3983 -39.7007
rtoes 35.0254
lfemur -4.80818 -22.1149 -17.8545
ltibia -1.11319e-014
lfoot -7.58585 26.7654
ltoes 9.43357
